<?xml version="1.0" encoding="utf-8"?>
<!-- Generator: Adobe Illustrator 23.1.1, SVG Export Plug-In . SVG Version: 6.00 Build 0)  -->
<svg version="1.1" id="Layer_1" xmlns="http://www.w3.org/2000/svg" xmlns:xlink="http://www.w3.org/1999/xlink" x="0px" y="0px"
	 viewBox="0 0 35.7 28.1" style="enable-background:new 0 0 35.7 28.1;" xml:space="preserve">
<style type="text/css">
	.st0{clip-path:url(#SVGID_2_);fill:#4078EF;}
</style>
<g>
	<g>
		<defs>
			<rect id="SVGID_1_" x="0" y="0" width="35.7" height="28.1"/>
		</defs>
		<clipPath id="SVGID_2_">
			<use xlink:href="#SVGID_1_"  style="overflow:visible;"/>
		</clipPath>
		<path class="st0" d="M6,15.6h3.5c0.4,0,1.2-0.1,1.5,0c0.4,0.1,0.9,0.9,1.2,1.2c0.2,0.2,0.9,0.8,0.9,1.1c-0.1,0-0.2,0-0.3,0
			c-0.2-0.1-1.1,0-1.3,0H8.5c-0.4,0-1-0.1-1.3,0.1c-0.3,0.1-0.3,0.5-0.5,0.8c-0.2,0.3-0.4,0.7-0.5,1c0,0.1,0,0.1,0,0.2
			c-0.5,1-1,2-1.5,2.9c-0.2,0.4-0.3,0.7-0.5,1.1c-0.2,0.3-0.4,0.7-0.5,1c0,0,0,0.1,0,0.2c-0.1,0.2-0.3,0.4-0.3,0.6c0,0,0.1,0,0.1,0
			c0.1,0.1,0.4,0,0.6,0h1.5h5.4h14.5H30c0.7,0,1.7,0.1,2.3,0c0,0,0-0.1,0-0.1c-0.2-0.2-0.2-0.4-0.3-0.7c-0.2-0.3-0.4-0.7-0.5-1
			c0-0.1,0-0.1,0-0.2c-0.1-0.3-0.3-0.7-0.5-1c-0.1-0.3-0.2-0.5-0.3-0.8c-0.3-0.7-0.7-1.4-1.1-2.1c0,0,0-0.1,0-0.2
			c-0.2-0.3-0.4-0.7-0.5-1c-0.1-0.3-0.2-0.6-0.5-0.8c-0.4-0.2-1.2-0.1-1.7-0.1c-1.4,0-2.8,0-4.1,0c0,0,0-0.1-0.1-0.1
			c0.1-0.2,0.3-0.2,0.4-0.4c0.3-0.4,0.6-0.7,0.9-1.1c0.1-0.1,0.2-0.2,0.3-0.2c0.1-0.2,0.3-0.5,0.5-0.5c0.2-0.1,0.6,0,0.9,0h2h1.5
			c0.2,0,0.5,0,0.7,0.1c0.3,0.1,0.3,0.4,0.5,0.7c0.4,0.6,0.7,1.3,1,2c0.1,0.2,0.3,0.5,0.4,0.7c0.3,0.8,0.7,1.5,1.1,2.3
			c0.2,0.3,0.3,0.7,0.4,1c0.2,0.3,0.4,0.7,0.5,1c0.3,0.6,0.5,1.3,0.9,1.9c0.2,0.5,0.5,0.9,0.7,1.4c0.2,0.4,0.5,0.6,0.3,1.3
			c-0.1,0.1-0.2,0.2-0.3,0.2h-2H28H8.2H2c-0.6,0-1.8,0.2-2-0.3c-0.1-0.2,0-0.7,0.1-0.8c0.4-0.7,0.7-1.5,1.1-2.2
			c0.2-0.5,0.6-1.1,0.8-1.6c0.2-0.4,0.3-0.7,0.5-1.1c0.5-1,1-2,1.5-3c0.2-0.4,0.3-0.7,0.5-1.1c0.2-0.3,0.4-0.7,0.5-1
			c0,0,0-0.1,0-0.2c0.1-0.2,0.3-0.5,0.4-0.7c0.1-0.1,0.1-0.3,0.2-0.4c0.1-0.1,0.2-0.2,0.3-0.3C5.9,15.6,5.9,15.6,6,15.6 M18.9,4
			c1.5,0.4,2.5,1.4,3,2.9c0.2,0.6,0.3,1.5,0.1,2.2C22,9.3,21.9,9.7,21.8,10c-0.6,1.2-1.6,2-3.1,2.4c-0.6,0.1-1.6,0-2.1-0.1
			c-1.2-0.4-2.3-1.5-2.7-2.6c-0.3-0.9-0.3-2.1,0-3c0.5-1.1,1.3-2,2.5-2.5C16.5,4.1,16.7,4,16.9,4c0.2,0,0.4,0,0.5-0.1
			C18,3.9,18.5,3.9,18.9,4 M17.6,0c1.4,0,2.6,0.3,3.5,0.7c2.1,0.9,3.5,2.4,4.3,4.6c0.6,1.5,0.8,3.8,0.2,5.4c0,0.1,0,0.2,0,0.4
			C25,12.7,24,13.7,23,15c-0.1,0.1-0.2,0.2-0.3,0.2c-0.3,0.5-0.8,0.9-1.1,1.3c-0.3,0.4-0.7,0.7-1,1.1c-0.7,1-1.3,1.9-1.9,3
			c-0.2,0.4-0.3,1.1-0.9,1.2c-0.6,0.1-0.8-1.1-1-1.4c-0.4-0.8-0.9-1.5-1.4-2.3c-0.4-0.5-0.8-1-1.2-1.5c-0.3-0.4-0.7-0.7-1-1
			c-0.9-1.2-2-2.2-2.7-3.7c-0.1-0.1-0.2-0.3-0.3-0.5c-0.2-0.5-0.3-1-0.4-1.5C9.8,9.7,9.8,9.4,9.8,9.1V8.5C9.7,8,9.8,7.3,9.9,6.8
			C10,6.4,10,6,10.2,5.6c0.3-0.9,0.8-1.7,1.3-2.4c0.3-0.4,0.5-0.6,0.8-0.9c0.1-0.1,0.2-0.2,0.2-0.3c0.9-0.6,1.7-1.2,2.8-1.6
			c0.5-0.2,1.1-0.2,1.7-0.4C17.2,0,17.5,0.1,17.6,0"/>
	</g>
</g>
</svg>
