<?xml version="1.0" encoding="utf-8"?>
<!-- Generator: Adobe Illustrator 23.1.1, SVG Export Plug-In . SVG Version: 6.00 Build 0)  -->
<svg version="1.1" id="Layer_1" xmlns="http://www.w3.org/2000/svg" xmlns:xlink="http://www.w3.org/1999/xlink" x="0px" y="0px"
	 viewBox="0 0 33.3 33.7" style="enable-background:new 0 0 33.3 33.7;" xml:space="preserve">
<style type="text/css">
	.st0{clip-path:url(#SVGID_2_);}
	.st1{fill:#4078EF;}
	.st2{clip-path:url(#SVGID_4_);}
</style>
<g>
	<g>
		<defs>
			<rect id="SVGID_1_" x="0" y="0" width="33.3" height="33.7"/>
		</defs>
		<clipPath id="SVGID_2_">
			<use xlink:href="#SVGID_1_"  style="overflow:visible;"/>
		</clipPath>
		<g class="st0">
			<g>
				<path class="st1" d="M33.3,33.7H0V7.4h33.3V33.7z M3.4,30.3h26.5V10.8H3.4V30.3z"/>
			</g>
		</g>
	</g>
	<g>
		<defs>
			<rect id="SVGID_3_" x="0" y="0" width="33.3" height="33.7"/>
		</defs>
		<clipPath id="SVGID_4_">
			<use xlink:href="#SVGID_3_"  style="overflow:visible;"/>
		</clipPath>
		<g class="st2">
			<g>
				<path class="st1" d="M19.7,24.6c-0.6,0-1.1-0.3-1.4-0.8L5.2,2.6C4.8,1.8,5,0.7,5.8,0.2C6.6-0.2,7.6,0,8.1,0.8l13,21.2
					c0.5,0.8,0.2,1.8-0.6,2.3C20.3,24.5,20,24.6,19.7,24.6z"/>
			</g>
		</g>
	</g>
</g>
<g>
	<g>
		<path class="st1" d="M19.7,24.6c-0.1,0-0.2,0-0.3,0l-7.9-1.4c-0.9-0.2-1.5-1-1.4-2c0.2-0.9,1-1.5,2-1.4l6.3,1.1l1.5-6.3
			c0.2-0.9,1.1-1.5,2-1.2c0.9,0.2,1.5,1.1,1.2,2l-1.9,7.8C21.1,24.1,20.5,24.6,19.7,24.6z"/>
	</g>
</g>
</svg>
