<?xml version="1.0" encoding="utf-8"?>
<!-- Generator: Adobe Illustrator 23.1.1, SVG Export Plug-In . SVG Version: 6.00 Build 0)  -->
<svg version="1.1" id="Layer_1" xmlns="http://www.w3.org/2000/svg" xmlns:xlink="http://www.w3.org/1999/xlink" x="0px" y="0px"
	 viewBox="0 0 35.6 35.6" style="enable-background:new 0 0 35.6 35.6;" xml:space="preserve">
<style type="text/css">
	.st0{clip-path:url(#SVGID_2_);}
	.st1{fill:#4078EF;}
	.st2{clip-path:url(#SVGID_4_);}
</style>
<g>
	<g>
		<defs>
			<rect id="SVGID_1_" x="0" y="0" width="35.5" height="35.5"/>
		</defs>
		<clipPath id="SVGID_2_">
			<use xlink:href="#SVGID_1_"  style="overflow:visible;"/>
		</clipPath>
		<g class="st0">
			<path class="st1" d="M17.8,35.6C8,35.6,0,27.6,0,17.8S8,0,17.8,0s17.8,8,17.8,17.8S27.6,35.6,17.8,35.6z M17.8,2.2
				c-8.6,0-15.5,7-15.5,15.5c0,8.6,7,15.5,15.5,15.5c8.6,0,15.5-7,15.5-15.5C33.3,9.2,26.3,2.2,17.8,2.2z"/>
		</g>
	</g>
	<g>
		<defs>
			<rect id="SVGID_3_" x="0" y="0" width="35.5" height="35.5"/>
		</defs>
		<clipPath id="SVGID_4_">
			<use xlink:href="#SVGID_3_"  style="overflow:visible;"/>
		</clipPath>
		<g class="st2">
			<path class="st1" d="M29.5,22.6c0-1.4-0.5-2.6-1.5-3.5c-1-1-2.2-1.5-3.5-1.5c-1.4,0-2.6,0.5-3.5,1.5c-1,1-1.5,2.2-1.5,3.5
				c0,1.4,0.5,2.6,1.5,3.5c1,1,2.2,1.5,3.5,1.5c1.4,0,2.6-0.5,3.5-1.5C29,25.2,29.5,24,29.5,22.6 M26.7,22.6c0,0.6-0.2,1.1-0.6,1.5
				c-0.4,0.4-0.9,0.6-1.5,0.6s-1.1-0.2-1.5-0.6c-0.4-0.4-0.6-0.9-0.6-1.5s0.2-1.1,0.6-1.5c0.4-0.4,0.9-0.6,1.5-0.6s1.1,0.2,1.5,0.6
				C26.4,21.5,26.7,22,26.7,22.6 M16.5,12.8c0-1.4-0.5-2.6-1.5-3.5c-1-1-2.1-1.5-3.5-1.5S8.9,8.3,7.9,9.3c-1,1-1.5,2.1-1.5,3.5
				s0.5,2.6,1.5,3.5c1,1,2.1,1.5,3.5,1.5c1.4,0,2.6-0.5,3.5-1.5C16,15.4,16.5,14.2,16.5,12.8 M11.5,15c-0.6,0-1.1-0.2-1.5-0.6
				s-0.6-0.9-0.6-1.5s0.2-1.1,0.6-1.5s0.9-0.6,1.5-0.6s1.1,0.2,1.5,0.6s0.6,0.9,0.6,1.5s-0.2,1.1-0.6,1.5S12.1,15,11.5,15"/>
		</g>
	</g>
</g>
<g>
	<g>
		<path class="st1" d="M9.5,27.4c-0.3,0-0.7-0.1-1-0.4c-0.5-0.5-0.5-1.4,0-1.9L25.5,8.3c0.5-0.5,1.4-0.5,1.9,0
			c0.5,0.5,0.5,1.4,0,1.9L10.5,27C10.2,27.2,9.9,27.4,9.5,27.4z"/>
	</g>
</g>
</svg>
