<?xml version="1.0" encoding="utf-8"?>
<!-- Generator: Adobe Illustrator 23.1.1, SVG Export Plug-In . SVG Version: 6.00 Build 0)  -->
<svg version="1.1" id="Layer_1" xmlns="http://www.w3.org/2000/svg" xmlns:xlink="http://www.w3.org/1999/xlink" x="0px" y="0px"
	 viewBox="0 0 34.3 30" style="enable-background:new 0 0 34.3 30;" xml:space="preserve">
<style type="text/css">
	.st0{clip-path:url(#SVGID_2_);fill:#4078EF;}
	.st1{clip-path:url(#SVGID_4_);fill:#4078EF;}
	.st2{clip-path:url(#SVGID_6_);fill:#4078EF;}
	.st3{clip-path:url(#SVGID_8_);fill:#4078EF;}
	.st4{clip-path:url(#SVGID_10_);fill:#4078EF;}
	.st5{clip-path:url(#SVGID_12_);fill:#4078EF;}
	.st6{clip-path:url(#SVGID_14_);fill:#4078EF;}
	.st7{clip-path:url(#SVGID_16_);fill:#4078EF;}
	.st8{clip-path:url(#SVGID_18_);fill:#4078EF;}
	.st9{clip-path:url(#SVGID_20_);fill:#4078EF;}
	.st10{clip-path:url(#SVGID_22_);fill:#4078EF;}
	.st11{clip-path:url(#SVGID_24_);fill:#4078EF;}
</style>
<g>
	<g>
		<defs>
			<rect id="SVGID_1_" y="0" width="34.3" height="30"/>
		</defs>
		<clipPath id="SVGID_2_">
			<use xlink:href="#SVGID_1_"  style="overflow:visible;"/>
		</clipPath>
		<path class="st0" d="M20.6,7.8h-6.8c-1.2,0-2,0.9-2,2.1v9.3c0,1,0.6,1.8,1.5,2c0.2,0,0.3,0.1,0.5,0.1v0.5v6.1
			c0,1.3,0.8,2.1,2.1,2.1h2.8c0.5,0,1-0.1,1.4-0.5c0.5-0.4,0.6-0.9,0.6-1.5v-6.6c1.4-0.3,2-0.9,2-2.1c0-3.1,0-6.2,0-9.4
			C22.6,8.7,21.8,7.8,20.6,7.8"/>
	</g>
	<g>
		<defs>
			<rect id="SVGID_3_" y="0" width="34.3" height="30"/>
		</defs>
		<clipPath id="SVGID_4_">
			<use xlink:href="#SVGID_3_"  style="overflow:visible;"/>
		</clipPath>
		<path class="st1" d="M20.6,7.8h-6.8c-1.2,0-2,0.9-2,2.1v9.3c0,1,0.6,1.8,1.5,2c0.2,0,0.3,0.1,0.5,0.1v0.5v6.1
			c0,1.3,0.8,2.1,2.1,2.1h2.8c0.5,0,1-0.1,1.4-0.5c0.5-0.4,0.6-0.9,0.6-1.5v-6.6c1.4-0.3,2-0.9,2-2.1c0-3.1,0-6.2,0-9.4
			C22.6,8.7,21.8,7.8,20.6,7.8"/>
	</g>
	<g>
		<defs>
			<rect id="SVGID_5_" y="0" width="34.3" height="30"/>
		</defs>
		<clipPath id="SVGID_6_">
			<use xlink:href="#SVGID_5_"  style="overflow:visible;"/>
		</clipPath>
		<path class="st2" d="M34.3,10.4c0-1.1-0.7-1.8-1.8-1.9c-1.9,0-3.9,0-5.8,0c-1.1,0-1.8,0.7-1.8,1.7v8.1c0,0.8,0.5,1.5,1.3,1.7
			c0.4,0.1,0.4,0.2,0.4,0.5v5.1c0,1.1,0.7,1.8,1.8,1.8c0.8,0,1.7,0,2.5,0c1,0,1.7-0.8,1.7-1.8v-1v-4.7c1.2-0.2,1.8-0.8,1.8-2
			C34.3,15.6,34.3,13,34.3,10.4"/>
	</g>
	<g>
		<defs>
			<rect id="SVGID_7_" y="0" width="34.3" height="30"/>
		</defs>
		<clipPath id="SVGID_8_">
			<use xlink:href="#SVGID_7_"  style="overflow:visible;"/>
		</clipPath>
		<path class="st3" d="M34.3,10.4c0-1.1-0.7-1.8-1.8-1.9c-1.9,0-3.9,0-5.8,0c-1.1,0-1.8,0.7-1.8,1.7v8.1c0,0.8,0.5,1.5,1.3,1.7
			c0.4,0.1,0.4,0.2,0.4,0.5v5.1c0,1.1,0.7,1.8,1.8,1.8c0.8,0,1.7,0,2.5,0c1,0,1.7-0.8,1.7-1.8v-1v-4.7c1.2-0.2,1.8-0.8,1.8-2
			C34.3,15.6,34.3,13,34.3,10.4"/>
	</g>
	<g>
		<defs>
			<rect id="SVGID_9_" y="0" width="34.3" height="30"/>
		</defs>
		<clipPath id="SVGID_10_">
			<use xlink:href="#SVGID_9_"  style="overflow:visible;"/>
		</clipPath>
		<path class="st4" d="M7.6,8.6c-2,0-3.9,0-5.9,0C0.7,8.6,0,9.3,0,10.4c0,2.7,0,5.4,0,8.1c0,0.4,0.2,0.9,0.4,1.1
			c0.3,0.3,0.8,0.5,1.2,0.7c0,0,0.1-0.1,0.1-0.1v0.5v5.1c0,1.1,0.7,1.8,1.8,1.8h2.2c1.2,0,1.9-0.7,1.9-1.9v-5v-0.5
			c1.2-0.2,1.7-0.8,1.7-2v-7.6C9.4,9.4,8.7,8.6,7.6,8.6"/>
	</g>
	<g>
		<defs>
			<rect id="SVGID_11_" y="0" width="34.3" height="30"/>
		</defs>
		<clipPath id="SVGID_12_">
			<use xlink:href="#SVGID_11_"  style="overflow:visible;"/>
		</clipPath>
		<path class="st5" d="M7.6,8.6c-2,0-3.9,0-5.9,0C0.7,8.6,0,9.3,0,10.4c0,2.7,0,5.4,0,8.1c0,0.4,0.2,0.9,0.4,1.1
			c0.3,0.3,0.8,0.5,1.2,0.7c0,0,0.1-0.1,0.1-0.1v0.5v5.1c0,1.1,0.7,1.8,1.8,1.8h2.2c1.2,0,1.9-0.7,1.9-1.9v-5v-0.5
			c1.2-0.2,1.7-0.8,1.7-2v-7.6C9.4,9.4,8.7,8.6,7.6,8.6"/>
	</g>
	<g>
		<defs>
			<rect id="SVGID_13_" y="0" width="34.3" height="30"/>
		</defs>
		<clipPath id="SVGID_14_">
			<use xlink:href="#SVGID_13_"  style="overflow:visible;"/>
		</clipPath>
		<path class="st6" d="M17.2,6.6c1.8,0,3.3-1.5,3.3-3.3S19,0,17.2,0c-1.8,0-3.3,1.5-3.3,3.3C13.9,5.1,15.3,6.6,17.2,6.6"/>
	</g>
	<g>
		<defs>
			<rect id="SVGID_15_" y="0" width="34.3" height="30"/>
		</defs>
		<clipPath id="SVGID_16_">
			<use xlink:href="#SVGID_15_"  style="overflow:visible;"/>
		</clipPath>
		<path class="st7" d="M17.2,6.6c1.8,0,3.3-1.5,3.3-3.3S19,0,17.2,0c-1.8,0-3.3,1.5-3.3,3.3C13.9,5.1,15.3,6.6,17.2,6.6"/>
	</g>
	<g>
		<defs>
			<rect id="SVGID_17_" y="0" width="34.3" height="30"/>
		</defs>
		<clipPath id="SVGID_18_">
			<use xlink:href="#SVGID_17_"  style="overflow:visible;"/>
		</clipPath>
		<path class="st8" d="M29.4,7.4c1.7,0.1,3-1.1,3-2.8c0-1.5-1.2-2.8-2.6-2.9c-1.7,0-3,1.1-3,2.7C26.8,6,28,7.4,29.4,7.4"/>
	</g>
	<g>
		<defs>
			<rect id="SVGID_19_" y="0" width="34.3" height="30"/>
		</defs>
		<clipPath id="SVGID_20_">
			<use xlink:href="#SVGID_19_"  style="overflow:visible;"/>
		</clipPath>
		<path class="st9" d="M29.4,7.4c1.7,0.1,3-1.1,3-2.8c0-1.5-1.2-2.8-2.6-2.9c-1.7,0-3,1.1-3,2.7C26.8,6,28,7.4,29.4,7.4"/>
	</g>
	<g>
		<defs>
			<rect id="SVGID_21_" y="0" width="34.3" height="30"/>
		</defs>
		<clipPath id="SVGID_22_">
			<use xlink:href="#SVGID_21_"  style="overflow:visible;"/>
		</clipPath>
		<path class="st10" d="M4.6,7.4c1.6,0,2.9-1.2,2.9-2.8c0-1.5-1.2-2.8-2.8-2.8C3.2,1.8,1.9,3,1.9,4.6C1.9,6.1,3.1,7.4,4.6,7.4"/>
	</g>
	<g>
		<defs>
			<rect id="SVGID_23_" y="0" width="34.3" height="30"/>
		</defs>
		<clipPath id="SVGID_24_">
			<use xlink:href="#SVGID_23_"  style="overflow:visible;"/>
		</clipPath>
		<path class="st11" d="M4.6,7.4c1.6,0,2.9-1.2,2.9-2.8c0-1.5-1.2-2.8-2.8-2.8C3.2,1.8,1.9,3,1.9,4.6C1.9,6.1,3.1,7.4,4.6,7.4"/>
	</g>
</g>
</svg>
