<?xml version="1.0" encoding="utf-8"?>
<!-- Generator: Adobe Illustrator 23.1.1, SVG Export Plug-In . SVG Version: 6.00 Build 0)  -->
<svg version="1.1" id="Layer_1" xmlns="http://www.w3.org/2000/svg" xmlns:xlink="http://www.w3.org/1999/xlink" x="0px" y="0px"
	 viewBox="0 0 17.1 17.1" style="enable-background:new 0 0 17.1 17.1;" xml:space="preserve">
<style type="text/css">
	.st0{clip-path:url(#SVGID_2_);fill:#4078EF;}
	.st1{clip-path:url(#SVGID_4_);fill:#FFFFFF;}
</style>
<g>
	<g>
		<defs>
			<rect id="SVGID_1_" x="0" width="17.1" height="17.1"/>
		</defs>
		<clipPath id="SVGID_2_">
			<use xlink:href="#SVGID_1_"  style="overflow:visible;"/>
		</clipPath>
		<path class="st0" d="M8.6,17.1c4.7,0,8.6-3.8,8.6-8.6S13.3,0,8.6,0S0,3.8,0,8.6C0,13.3,3.8,17.1,8.6,17.1"/>
	</g>
	<g>
		<defs>
			<rect id="SVGID_3_" x="0" width="17.1" height="17.1"/>
		</defs>
		<clipPath id="SVGID_4_">
			<use xlink:href="#SVGID_3_"  style="overflow:visible;"/>
		</clipPath>
		<path class="st1" d="M3.3,13.3c0,0.1,0,0.3,0.2,0.3c0,0,0.1,0,0.1,0L6,13l-2.2-2.2L3.3,13.3z M13.7,4.2l-1-1c-0.4-0.4-1-0.4-1.4,0
			l0,0l-0.9,0.9l2.2,2.2l1.1-1.1C14,5,14,4.5,13.7,4.2 M9.9,4.7L12,6.9l-5.5,5.5l-2.2-2.2L9.9,4.7z"/>
	</g>
</g>
</svg>
