<?xml version="1.0" encoding="utf-8"?>
<!-- Generator: Adobe Illustrator 23.1.1, SVG Export Plug-In . SVG Version: 6.00 Build 0)  -->
<svg version="1.1" id="Layer_1" xmlns="http://www.w3.org/2000/svg" xmlns:xlink="http://www.w3.org/1999/xlink" x="0px" y="0px"
	 viewBox="0 0 15 44.1" style="enable-background:new 0 0 15 44.1;" xml:space="preserve">
<style type="text/css">
	.st0{clip-path:url(#SVGID_2_);}
	.st1{fill:#4078EF;}
	.st2{clip-path:url(#SVGID_4_);}
	.st3{clip-path:url(#SVGID_6_);}
	.st4{clip-path:url(#SVGID_8_);}
</style>
<g>
	<g>
		<defs>
			<rect id="SVGID_1_" width="15" height="44.1"/>
		</defs>
		<clipPath id="SVGID_2_">
			<use xlink:href="#SVGID_1_"  style="overflow:visible;"/>
		</clipPath>
		<g class="st0">
			<path class="st1" d="M7.3,0.5c2,0,3.2,1,3.8,2.3c0.3,0.8,0.4,2,0.1,2.8c-0.4,1-1.2,1.8-2.2,2.2C8.6,8,8.2,8,7.9,8.1H7.5
				C7.1,8.2,6.5,8,6.2,7.9C5,7.4,4.2,6.6,3.8,5.4C3.7,5,3.6,4.3,3.7,3.7C3.8,3.5,3.8,3.2,3.9,3c0.4-1,1.2-1.8,2.2-2.2
				c0.2-0.1,0.5-0.2,0.8-0.2C7,0.5,7.2,0.5,7.3,0.5"/>
		</g>
	</g>
	<g>
		<defs>
			<rect id="SVGID_3_" width="15" height="44.1"/>
		</defs>
		<clipPath id="SVGID_4_">
			<use xlink:href="#SVGID_3_"  style="overflow:visible;"/>
		</clipPath>
		<g class="st2">
			<path class="st1" d="M7.3,8.6C7,8.6,6.5,8.5,6,8.3C4.7,7.8,3.8,6.9,3.4,5.5C3.2,5,3.1,4.3,3.2,3.6l0-0.2c0-0.2,0.1-0.4,0.2-0.6
				c0.5-1.2,1.3-2,2.4-2.5c0.2-0.1,0.5-0.2,0.7-0.2l0.1,0C6.9,0,7,0,7,0c0,0,0,0,0,0l0,0l0.1,0c2,0,3.4,0.9,4.2,2.6
				c0.3,0.8,0.5,2.1,0.1,3.2c-0.5,1.2-1.3,2-2.5,2.5C8.8,8.4,8.6,8.5,8.3,8.5c-0.1,0-0.2,0-0.3,0.1l-0.1,0H7.5
				C7.5,8.6,7.4,8.6,7.3,8.6z M7,1L6.8,1c-0.2,0-0.4,0.1-0.5,0.2c-0.9,0.4-1.5,1.1-1.9,2C4.3,3.3,4.3,3.4,4.2,3.6L4.2,3.8
				c-0.1,0.4,0,1,0.1,1.4c0.4,1.1,1,1.8,2.1,2.2C7,7.7,7.3,7.7,7.5,7.7l0.4,0c0.1,0,0.2,0,0.3-0.1c0.2,0,0.4-0.1,0.6-0.1
				c0.9-0.4,1.6-1,2-2C11,4.7,10.8,3.6,10.6,3C10,1.6,8.9,1,7.4,1C7.2,1,7.1,1,7,1z"/>
		</g>
	</g>
	<g>
		<defs>
			<rect id="SVGID_5_" width="15" height="44.1"/>
		</defs>
		<clipPath id="SVGID_6_">
			<use xlink:href="#SVGID_5_"  style="overflow:visible;"/>
		</clipPath>
		<g class="st3">
			<path class="st1" d="M11.8,27.4v8.8v2.9c0,0.5,0,1.2-0.1,1.6c-0.2,0.8-0.5,1.5-1.1,1.9c-0.5,0.4-1.1,0.6-1.8,0.8
				c-0.2,0.1-0.4,0-0.6,0.1c-0.3,0.1-1.2,0.1-1.5,0H6.4c-0.2,0-0.5-0.1-0.7-0.1c-1-0.3-1.7-1-2.1-2c-0.5-1.1-0.3-2.8-0.3-4.4v-9.6
				c-1.1-0.1-2-1.1-2.4-2c-0.1-0.3-0.2-0.7-0.3-1.1c0-0.3,0-0.6,0-0.9v-1.8V17v-2.9c0-0.5-0.1-1,0-1.5c0.1-0.4,0.1-0.7,0.3-1
				c0.5-1.2,1.5-1.7,2.9-2c0.5-0.1,1.5,0,2.1,0h1.8h2.5c0.4,0,0.8,0,1.2,0c0.2,0,0.5,0.1,0.7,0.1c1,0.3,1.7,0.9,2.1,1.8
				c0.4,1,0.4,2.1,0.4,3.5v5.4v2.8c0,0.6,0,1.2-0.1,1.7c-0.3,0.9-0.7,1.5-1.4,1.9C12.7,27.1,12.2,27.4,11.8,27.4"/>
		</g>
	</g>
	<g>
		<defs>
			<rect id="SVGID_7_" width="15" height="44.1"/>
		</defs>
		<clipPath id="SVGID_8_">
			<use xlink:href="#SVGID_7_"  style="overflow:visible;"/>
		</clipPath>
		<g class="st4">
			<path class="st1" d="M7.5,44.1c-0.3,0-0.6,0-0.8,0H6.4l-0.8-0.1c-1.2-0.4-2-1.1-2.5-2.3c-0.4-1-0.4-2.4-0.4-3.7
				c0-0.3,0-0.6,0-0.9v-9.2c-1.2-0.3-2-1.4-2.4-2.3c-0.1-0.3-0.2-0.6-0.2-0.9l-0.1-0.3c0-0.4,0-0.7,0-1v-9.3c0-0.1,0-0.3,0-0.4
				c0-0.4,0-0.8,0-1.1l0-0.2c0.1-0.3,0.1-0.6,0.3-1c0.6-1.5,2-2,3.2-2.2C4,9.1,4.7,9.1,5.3,9.1c0.2,0,0.4,0,0.6,0l5.5,0
				c0.3,0,0.6,0.1,0.8,0.1c1.2,0.4,2,1.1,2.4,2.1c0.4,1,0.4,2.1,0.4,3.3l0,8.6l0,0.3c0,0.5,0,1.1-0.1,1.5c-0.3,1-0.8,1.6-1.6,2.2
				c-0.3,0.2-0.6,0.4-1,0.5l0,11.7c0,0.5,0,1-0.1,1.4c-0.2,0.7-0.5,1.6-1.2,2.2c-0.6,0.4-1.2,0.7-2,0.9C8.7,44,8.5,44,8.3,44
				C8.1,44,7.8,44.1,7.5,44.1z M6.7,43.1l0.1,0c0.2,0,1.1,0,1.3,0c0.2,0,0.3,0,0.4,0c0.1,0,0.2,0,0.2,0c0.7-0.2,1.2-0.4,1.6-0.8
				c0.4-0.3,0.7-0.8,0.9-1.7c0.1-0.3,0.1-0.7,0.1-1.1l0-3.3V27l0.4,0c0.3,0,0.7-0.2,1-0.4c0.7-0.4,1-0.9,1.2-1.7
				c0.1-0.3,0.1-0.8,0.1-1.2l0-8.5l0-0.4c0-1.2,0-2.1-0.3-2.9c-0.3-0.7-0.9-1.3-1.8-1.5c-0.2,0-0.4-0.1-0.6-0.1l-5.4,0
				c-0.2,0-0.4,0-0.6,0c-0.5,0-1.1,0-1.4,0c-1.4,0.3-2.2,0.8-2.6,1.7C1.2,12,1.1,12.3,1,12.6l0,0.2c-0.1,0.2,0,0.6,0,0.9
				c0,0.2,0,0.3,0,0.5v9.3c0,0.3,0,0.6,0,0.9l0.1,0.2c0.1,0.2,0.1,0.5,0.2,0.7c0.3,0.8,1,1.7,2,1.8l0.4,0v10c0,0.3,0,0.6,0,0.9
				c0,1.2,0,2.5,0.3,3.3c0.4,0.9,1,1.4,1.9,1.7l0.6,0.1L6.7,43.1z"/>
		</g>
	</g>
</g>
</svg>
