<?xml version="1.0" encoding="utf-8"?>
<!-- Generator: Adobe Illustrator 23.1.1, SVG Export Plug-In . SVG Version: 6.00 Build 0)  -->
<svg version="1.1" id="Layer_1" xmlns="http://www.w3.org/2000/svg" xmlns:xlink="http://www.w3.org/1999/xlink" x="0px" y="0px"
	 viewBox="0 0 17.1 17.1" style="enable-background:new 0 0 17.1 17.1;" xml:space="preserve">
<style type="text/css">
	.st0{clip-path:url(#SVGID_2_);fill:#4078EF;}
	.st1{clip-path:url(#SVGID_4_);fill:#FFFFFF;}
</style>
<g>
	<g>
		<defs>
			<rect id="SVGID_1_" width="17.1" height="17.1"/>
		</defs>
		<clipPath id="SVGID_2_">
			<use xlink:href="#SVGID_1_"  style="overflow:visible;"/>
		</clipPath>
		<path class="st0" d="M8.6,17.1c4.7,0,8.6-3.8,8.6-8.6S13.3,0,8.6,0S0,3.8,0,8.6C0,13.3,3.8,17.1,8.6,17.1"/>
	</g>
	<g>
		<defs>
			<rect id="SVGID_3_" width="17.1" height="17.1"/>
		</defs>
		<clipPath id="SVGID_4_">
			<use xlink:href="#SVGID_3_"  style="overflow:visible;"/>
		</clipPath>
		<path class="st1" d="M4.4,4.8c0.2-0.5,0.5-1,0.9-1.4s0.8-0.7,1.3-0.9s1.1-0.3,1.8-0.3c0.8,0,1.5,0.1,2.1,0.3s1,0.5,1.4,0.9
			s0.6,0.7,0.7,1.1c0.1,0.4,0.2,0.8,0.2,1.1c0,0.6-0.1,1-0.2,1.4c-0.1,0.4-0.3,0.7-0.5,0.9s-0.5,0.5-0.7,0.7
			c-0.3,0.2-0.5,0.4-0.8,0.5s-0.5,0.4-0.6,0.6c-0.2,0.2-0.3,0.5-0.3,0.9v0.7H7.2v-0.8c0-0.5,0.1-0.9,0.3-1.3
			c0.2-0.3,0.3-0.6,0.6-0.9c0.2-0.2,0.4-0.5,0.7-0.6s0.5-0.4,0.7-0.5c0.2-0.2,0.4-0.4,0.5-0.6C10,6.4,10.1,6.2,10,5.9
			c0-0.5-0.1-0.9-0.4-1.2S9,4.3,8.5,4.3c-0.3,0-0.6,0.1-0.8,0.2S7.3,4.7,7.1,5S6.9,5.4,6.8,5.7C6.7,6,6.7,6.3,6.7,6.6H4.1
			C4.1,5.9,4.2,5.3,4.4,4.8 M9.7,15.1H7v-2.7h2.8V15.1z"/>
	</g>
</g>
</svg>
