<?xml version="1.0" encoding="utf-8"?>
<!-- Generator: Adobe Illustrator 23.1.1, SVG Export Plug-In . SVG Version: 6.00 Build 0)  -->
<svg version="1.1" id="Layer_1" xmlns="http://www.w3.org/2000/svg" xmlns:xlink="http://www.w3.org/1999/xlink" x="0px" y="0px"
	 viewBox="0 0 29.6 43" style="enable-background:new 0 0 29.6 43;" xml:space="preserve">
<style type="text/css">
	.st0{clip-path:url(#SVGID_2_);}
	.st1{fill:none;stroke:#4078EF;stroke-width:2.58;stroke-linecap:round;}
	.st2{clip-path:url(#SVGID_4_);}
	.st3{fill:#4078EF;}
	.st4{clip-path:url(#SVGID_6_);}
	.st5{clip-path:url(#SVGID_8_);}
	.st6{fill:none;stroke:#4078EF;stroke-width:2.363;stroke-miterlimit:10;}
	.st7{clip-path:url(#SVGID_10_);}
	.st8{fill:none;stroke:#4078EF;stroke-width:1.181;}
</style>
<g>
	<g>
		<defs>
			<rect id="SVGID_1_" width="29.6" height="43"/>
		</defs>
		<clipPath id="SVGID_2_">
			<use xlink:href="#SVGID_1_"  style="overflow:visible;"/>
		</clipPath>
		<g class="st0">
			<rect x="1.3" y="1.3" class="st1" width="25.4" height="25.4"/>
		</g>
	</g>
	<g>
		<defs>
			<rect id="SVGID_3_" width="29.6" height="43"/>
		</defs>
		<clipPath id="SVGID_4_">
			<use xlink:href="#SVGID_3_"  style="overflow:visible;"/>
		</clipPath>
		<g class="st2">
			<path class="st3" d="M10.7,16.5v20.1l5.5-6.3c0.2-0.2,0.5-0.4,0.8-0.4h8.8L10.7,16.5z M9.6,40.5c-0.1,0-0.2,0-0.4-0.1
				c-0.4-0.2-0.7-0.5-0.7-1V14.2c0-0.4,0.2-0.8,0.6-1c0.4-0.2,0.8-0.1,1.1,0.2l18.9,16.8c0.3,0.3,0.4,0.8,0.3,1.2
				c-0.2,0.4-0.5,0.7-1,0.7H17.5l-7,8C10.2,40.3,9.9,40.5,9.6,40.5"/>
		</g>
	</g>
	<g>
		<defs>
			<rect id="SVGID_5_" width="29.6" height="43"/>
		</defs>
		<clipPath id="SVGID_6_">
			<use xlink:href="#SVGID_5_"  style="overflow:visible;"/>
		</clipPath>
		<g class="st4">
			<path class="st3" d="M21.2,41.8c-0.4,0-0.8-0.2-1-0.7L16,30.6c-0.2-0.5,0-1.2,0.6-1.4c0.5-0.2,1.1,0,1.4,0.6l4.2,10.5
				c0.2,0.5,0,1.2-0.6,1.4C21.5,41.8,21.3,41.8,21.2,41.8"/>
		</g>
	</g>
	<g>
		<defs>
			<rect id="SVGID_7_" width="29.6" height="43"/>
		</defs>
		<clipPath id="SVGID_8_">
			<use xlink:href="#SVGID_7_"  style="overflow:visible;"/>
		</clipPath>
		<g class="st5">
			<path class="st6" d="M21.2,41.8c-0.4,0-0.8-0.2-1-0.7L16,30.6c-0.2-0.5,0-1.2,0.6-1.4c0.5-0.2,1.1,0,1.4,0.6l4.2,10.5
				c0.2,0.5,0,1.2-0.6,1.4C21.5,41.8,21.3,41.8,21.2,41.8z"/>
		</g>
	</g>
</g>
<g>
	<polygon class="st3" points="10,15 10,37.5 17.1,31.6 27.8,30.4 	"/>
</g>
<g>
	<g>
		<defs>
			<rect id="SVGID_9_" width="29.6" height="43"/>
		</defs>
		<clipPath id="SVGID_10_">
			<use xlink:href="#SVGID_9_"  style="overflow:visible;"/>
		</clipPath>
		<g class="st7">
			<polygon class="st8" points="10,15 10,37.5 17.1,31.6 27.8,30.4 			"/>
		</g>
	</g>
</g>
</svg>
