<?xml version="1.0" encoding="utf-8"?>
<!-- Generator: Adobe Illustrator 23.1.1, SVG Export Plug-In . SVG Version: 6.00 Build 0)  -->
<svg version="1.1" id="Layer_1" xmlns="http://www.w3.org/2000/svg" xmlns:xlink="http://www.w3.org/1999/xlink" x="0px" y="0px"
	 viewBox="0 0 18.4 16" style="enable-background:new 0 0 18.4 16;" xml:space="preserve">
<style type="text/css">
	.st0{fill:#1D1D1B;}
	.st1{clip-path:url(#SVGID_2_);}
</style>
<g>
	<g>
		<polygon class="st0" points="0.2,0.2 0.2,15.8 18.1,15.8 18.1,14.6 1.4,14.6 1.4,0.2 		"/>
	</g>
	<g>
		<g>
			<defs>
				<rect id="SVGID_1_" width="18.4" height="16"/>
			</defs>
			<clipPath id="SVGID_2_">
				<use xlink:href="#SVGID_1_"  style="overflow:visible;"/>
			</clipPath>
			<g class="st1">
				<path class="st0" d="M18.4,16.1H0V0h1.6v14.4h16.7V16.1z M0.5,15.6h17.4v-0.7H1.1V0.5H0.5V15.6z"/>
			</g>
		</g>
	</g>
	<g>
		<path class="st0" d="M6.6,3.7h2.3v9.2H6.6V3.7z M10,1.4h2.3v11.5H10V1.4z M13.5,4.9h2.3v8.1h-2.3C13.5,12.9,13.5,4.9,13.5,4.9z
			 M3.1,7.2h2.3v5.8H3.1V7.2z"/>
	</g>
</g>
</svg>
