<?xml version="1.0" encoding="utf-8"?>
<!-- Generator: Adobe Illustrator 23.1.1, SVG Export Plug-In . SVG Version: 6.00 Build 0)  -->
<svg version="1.1" id="Layer_1" xmlns="http://www.w3.org/2000/svg" xmlns:xlink="http://www.w3.org/1999/xlink" x="0px" y="0px"
	 viewBox="0 0 33.2 38" style="enable-background:new 0 0 33.2 38;" xml:space="preserve">
<style type="text/css">
	.st0{clip-path:url(#SVGID_2_);fill:#4078EF;}
	.st1{fill:#4078EF;}
</style>
<g>
	<defs>
		<rect id="SVGID_1_" x="0.2" width="33" height="38"/>
	</defs>
	<clipPath id="SVGID_2_">
		<use xlink:href="#SVGID_1_"  style="overflow:visible;"/>
	</clipPath>
	<path class="st0" d="M31.4,8.5l-5.7,16L23,31.8l-1.4,4c0,0.1-0.1,0.1-0.2,0.1c0,0,0,0-0.1,0l-4.7-1.6L3.4,29.8l-1.6-0.5
		c0,0,0,0,0,0c0,0,0,0,0,0c0,0,0,0,0,0c0,0,0-0.1,0-0.1l1.2-3.3l1.2-3.4l6.6-18.4l0.6-1.7l0.2-0.5c0,0,0,0,0,0c0,0,0.1-0.1,0.1-0.1
		c0,0,0,0,0.1,0L12.9,2l3.5,1.2l5.7,1.9L24.8,6l6.4,2.2c0,0,0,0,0,0c0,0,0,0,0.1,0.1C31.4,8.4,31.4,8.4,31.4,8.5 M26.6,31.2
		c0,0.1,0,0.2-0.1,0.2l-1.5,0.2l1-2.8l0.2-0.7L26.6,31.2z M5.8,34.1c-0.1,0-0.2,0-0.2-0.1l-0.2-1.8L7.5,33l2,0.7L5.8,34.1z M1.8,5.3
		c0-0.1,0.1-0.2,0.1-0.2l6.9-0.9L7.2,8.7L4.7,9.1l0.2,1.6l1.7-0.2l-3,8.3L1.8,5.3z M22.5,2.4c0.1,0,0.2,0.1,0.2,0.1l0.2,1.1L20,2.7
		L22.5,2.4z M33,8.1C33,8,33,8,33,7.9c0,0,0-0.1-0.1-0.2s0-0.1-0.1-0.2c0,0,0-0.1,0-0.1c0-0.1-0.1-0.1-0.1-0.1
		c-0.1-0.1-0.2-0.2-0.3-0.3c0,0-0.1-0.1-0.2-0.1c0,0,0,0-0.1,0c0,0-0.1-0.1-0.2-0.1c-0.1,0-0.1-0.1-0.2-0.1l-7.2-2.4l-0.3-2
		c-0.1-1-1.1-1.7-2.1-1.5l-5.7,0.8l-4.3-1.5C12.1,0,11.9,0,11.7,0h-0.2c0,0-0.1,0-0.1,0c-0.4,0-0.8,0.2-1,0.5
		C10.2,0.7,10,0.9,9.9,1.2L9.4,2.5L1.7,3.6c-1,0.1-1.7,1.1-1.6,2l2.3,16.6l-2.3,6.3c0,0.1-0.1,0.2-0.1,0.3c0,0.1,0,0.2,0,0.4
		c0,0.1,0,0.2,0,0.3c0,0.1,0,0.1,0,0.2c0,0,0,0.1,0,0.1c0,0.1,0.1,0.2,0.1,0.3c0,0,0,0,0,0.1c0.1,0.1,0.1,0.2,0.2,0.3
		c0,0,0.1,0.1,0.1,0.1c0.1,0.1,0.1,0.1,0.2,0.2c0,0,0.1,0,0.1,0c0.1,0,0.1,0.1,0.2,0.1c0.1,0,0.1,0,0.2,0.1l2.4,0.8L4,34.2
		c0.1,1,1.1,1.7,2.1,1.5l7-0.9l7.8,2.7c0.1,0,0.2,0,0.3,0.1c0.1,0,0.2,0,0.3,0c0.1,0,0.3,0,0.4,0c0.1,0,0.2,0,0.2-0.1
		c0.1,0,0.2-0.1,0.3-0.1c0.1,0,0.2-0.1,0.3-0.2c0.2-0.2,0.5-0.5,0.6-0.8l1.1-3l2.4-0.3c1-0.1,1.7-1,1.6-2l-0.9-6.3l0.1-0.4L32.9,9
		C33,8.9,33,8.8,33,8.7c0-0.1,0-0.1,0-0.2C33.1,8.4,33,8.2,33,8.1C33,8.1,33,8.1,33,8.1"/>
</g>
<polygon class="st1" points="11.8,7.9 26.9,13 27.4,11.5 12.3,6.3 "/>
<polygon class="st1" points="10.1,12.5 25.2,17.7 25.8,16.1 10.7,11 "/>
<polygon class="st1" points="8.5,17.1 23.6,22.2 24.1,20.7 9,15.5 "/>
<polygon class="st1" points="6.8,21.8 21.9,27 22.5,25.4 7.3,20.3 "/>
<polygon class="st1" points="5.4,25.7 20.5,30.8 21.1,29.3 5.9,24.2 "/>
</svg>
