<?xml version="1.0" encoding="utf-8"?>
<!-- Generator: Adobe Illustrator 23.1.1, SVG Export Plug-In . SVG Version: 6.00 Build 0)  -->
<svg version="1.1" id="Layer_1" xmlns="http://www.w3.org/2000/svg" xmlns:xlink="http://www.w3.org/1999/xlink" x="0px" y="0px"
	 viewBox="0 0 5.7 16.8" style="enable-background:new 0 0 5.7 16.8;" xml:space="preserve">
<style type="text/css">
	.st0{clip-path:url(#SVGID_2_);fill:#1D1D1B;}
	.st1{clip-path:url(#SVGID_4_);fill:none;stroke:#1D1D1B;stroke-width:0.363;stroke-miterlimit:10;}
	.st2{clip-path:url(#SVGID_6_);fill:#1D1D1B;}
	.st3{clip-path:url(#SVGID_8_);fill:none;stroke:#1D1D1B;stroke-width:0.363;stroke-miterlimit:10;}
</style>
<g>
	<g>
		<defs>
			<rect id="SVGID_1_" x="0" y="0" width="5.7" height="16.8"/>
		</defs>
		<clipPath id="SVGID_2_">
			<use xlink:href="#SVGID_1_"  style="overflow:visible;"/>
		</clipPath>
		<path class="st0" d="M2.8,0.2c0.8,0,1.2,0.4,1.4,0.9c0.1,0.3,0.2,0.8,0,1.1C4.1,2.6,3.8,2.8,3.4,3C3.3,3.1,3.2,3.1,3,3.1H2.9
			c-0.2,0-0.4,0-0.5-0.1C1.9,2.8,1.6,2.5,1.5,2c0-0.2-0.1-0.4,0-0.6c0-0.1,0-0.2,0.1-0.3c0.2-0.4,0.4-0.7,0.8-0.9
			c0.1,0,0.2-0.1,0.3-0.1C2.7,0.2,2.7,0.2,2.8,0.2"/>
	</g>
	<g>
		<defs>
			<rect id="SVGID_3_" x="0" y="0" width="5.7" height="16.8"/>
		</defs>
		<clipPath id="SVGID_4_">
			<use xlink:href="#SVGID_3_"  style="overflow:visible;"/>
		</clipPath>
		<path class="st1" d="M2.8,0.2c0.8,0,1.2,0.4,1.4,0.9c0.1,0.3,0.2,0.8,0,1.1C4.1,2.6,3.8,2.8,3.4,3C3.3,3.1,3.2,3.1,3,3.1H2.9
			c-0.2,0-0.4,0-0.5-0.1C1.9,2.8,1.6,2.5,1.5,2c0-0.2-0.1-0.4,0-0.6c0-0.1,0-0.2,0.1-0.3c0.2-0.4,0.4-0.7,0.8-0.9
			c0.1,0,0.2-0.1,0.3-0.1C2.7,0.2,2.7,0.2,2.8,0.2z"/>
	</g>
	<g>
		<defs>
			<rect id="SVGID_5_" x="0" y="0" width="5.7" height="16.8"/>
		</defs>
		<clipPath id="SVGID_6_">
			<use xlink:href="#SVGID_5_"  style="overflow:visible;"/>
		</clipPath>
		<path class="st2" d="M4.5,10.4v3.3v1.1c0,0.2,0,0.4,0,0.6c-0.1,0.3-0.2,0.6-0.4,0.7c-0.2,0.2-0.4,0.2-0.7,0.3c-0.1,0-0.1,0-0.2,0
			c-0.1,0-0.5,0-0.6,0H2.4c-0.1,0-0.2,0-0.3,0c-0.4-0.1-0.7-0.4-0.8-0.7c-0.2-0.4-0.1-1.1-0.1-1.7v-3.7c-0.4,0-0.8-0.4-0.9-0.8
			c0-0.1-0.1-0.3-0.1-0.4c0-0.1,0-0.2,0-0.3V8.3V6.5V5.4c0-0.2,0-0.4,0-0.5c0-0.1,0-0.3,0.1-0.4C0.5,4,0.9,3.8,1.4,3.7
			c0.2,0,0.6,0,0.8,0h0.7h0.9c0.2,0,0.3,0,0.5,0c0.1,0,0.2,0,0.3,0c0.4,0.1,0.7,0.4,0.8,0.7c0.2,0.4,0.2,0.8,0.2,1.3v2.1v1.1
			c0,0.2,0,0.5,0,0.6C5.4,9.9,5.2,10.1,5,10.3C4.8,10.3,4.7,10.4,4.5,10.4"/>
	</g>
	<g>
		<defs>
			<rect id="SVGID_7_" x="0" y="0" width="5.7" height="16.8"/>
		</defs>
		<clipPath id="SVGID_8_">
			<use xlink:href="#SVGID_7_"  style="overflow:visible;"/>
		</clipPath>
		<path class="st3" d="M4.5,10.4v3.3v1.1c0,0.2,0,0.4,0,0.6c-0.1,0.3-0.2,0.6-0.4,0.7c-0.2,0.2-0.4,0.2-0.7,0.3c-0.1,0-0.1,0-0.2,0
			c-0.1,0-0.5,0-0.6,0H2.4c-0.1,0-0.2,0-0.3,0c-0.4-0.1-0.7-0.4-0.8-0.7c-0.2-0.4-0.1-1.1-0.1-1.7v-3.7c-0.4,0-0.8-0.4-0.9-0.8
			c0-0.1-0.1-0.3-0.1-0.4c0-0.1,0-0.2,0-0.3V8.3V6.5V5.4c0-0.2,0-0.4,0-0.5c0-0.1,0-0.3,0.1-0.4C0.5,4,0.9,3.8,1.4,3.7
			c0.2,0,0.6,0,0.8,0h0.7h0.9c0.2,0,0.3,0,0.5,0c0.1,0,0.2,0,0.3,0c0.4,0.1,0.7,0.4,0.8,0.7c0.2,0.4,0.2,0.8,0.2,1.3v2.1v1.1
			c0,0.2,0,0.5,0,0.6C5.4,9.9,5.2,10.1,5,10.3C4.8,10.3,4.7,10.4,4.5,10.4z"/>
	</g>
</g>
</svg>
