<?xml version="1.0" encoding="utf-8"?>
<!-- Generator: Adobe Illustrator 23.1.1, SVG Export Plug-In . SVG Version: 6.00 Build 0)  -->
<svg version="1.1" id="Layer_1" xmlns="http://www.w3.org/2000/svg" xmlns:xlink="http://www.w3.org/1999/xlink" x="0px" y="0px"
	 viewBox="0 0 32.8 31.6" style="enable-background:new 0 0 32.8 31.6;" xml:space="preserve">
<style type="text/css">
	.st0{fill:#4078EF;}
	.st1{clip-path:url(#SVGID_2_);fill:#4078EF;}
	.st2{clip-path:url(#SVGID_4_);fill:#4078EF;}
</style>
<polygon class="st0" points="21.9,21 18.8,21 18.8,24.1 14,24.1 14,21 10.9,21 10.9,16.2 14,16.2 14,13.1 18.8,13.1 18.8,16.2 
	21.9,16.2 "/>
<g>
	<g>
		<defs>
			<rect id="SVGID_1_" width="32.8" height="31.6"/>
		</defs>
		<clipPath id="SVGID_2_">
			<use xlink:href="#SVGID_1_"  style="overflow:visible;"/>
		</clipPath>
		<path class="st1" d="M20.3,0h-7.9C9.8,0,7.7,2.1,7.7,4.7h2.8c0-1.1,0.9-1.9,1.9-1.9h7.9c1.1,0,1.9,0.9,1.9,1.9H25
			C25,2.1,22.9,0,20.3,0"/>
	</g>
	<g>
		<defs>
			<rect id="SVGID_3_" width="32.8" height="31.6"/>
		</defs>
		<clipPath id="SVGID_4_">
			<use xlink:href="#SVGID_3_"  style="overflow:visible;"/>
		</clipPath>
		<path class="st2" d="M16.4,27.7c-5.1,0-9.1-4.1-9.1-9.1s4.1-9.1,9.1-9.1s9.1,4.1,9.1,9.1S21.4,27.7,16.4,27.7 M31.4,5.5h-30
			C0.6,5.5,0,6.2,0,7v23.3c0,0.8,0.6,1.4,1.4,1.4h30c0.8,0,1.4-0.6,1.4-1.4V7C32.8,6.2,32.1,5.5,31.4,5.5"/>
	</g>
</g>
</svg>
