<?xml version="1.0" encoding="utf-8"?>
<!-- Generator: Adobe Illustrator 23.0.6, SVG Export Plug-In . SVG Version: 6.00 Build 0)  -->
<svg version="1.1" id="Layer_1" xmlns="http://www.w3.org/2000/svg" xmlns:xlink="http://www.w3.org/1999/xlink" x="0px" y="0px"
	 viewBox="0 0 4938.75 638.86" style="enable-background:new 0 0 4938.75 638.86;" xml:space="preserve">
<style type="text/css">
	.st0{fill:#1D1D1B;}
	.st1{fill:#4078EF;}
</style>
<g>
	<path class="st0" d="M312.84,538.59h111.63V347.21h48.54l118.57,191.37h119.26L579.8,327.8c58.24-17.33,101.93-56.86,101.93-131.74
		v-2.77c0-102.62-74.19-150.46-191.37-150.46H312.84V538.59L312.84,538.59z M424.48,270.93V128.8h63.1
		c54.08,0,84.59,17.33,84.59,67.95v2.77c0,47.84-28.43,71.42-84.59,71.42L424.48,270.93L424.48,270.93z M913.24,546.21
		c99.16,0,161.56-43.68,173.34-122.04h-94.99c-6.24,30.51-29.12,50.62-75.58,50.62c-54.78,0-87.37-34.67-90.14-94.99h261.4v-27.73
		c0-129.66-83.2-184.44-176.81-184.44c-105.39,0-186.52,74.19-186.52,188.6v5.55C723.95,477.57,803.69,546.21,913.24,546.21
		L913.24,546.21z M827.26,318.09c7.63-51.31,38.14-81.13,83.21-81.13c47.84,0,75.58,26.35,79.05,81.13H827.26L827.26,318.09z
		 M1242.8,546.21c56.86,0,88.76-22.19,109.56-51.31v43.68h97.76V302.14c0-98.46-63.09-134.52-151.85-134.52
		c-88.75,0-156.7,38.14-162.94,124.12h94.99c4.16-31.2,22.19-51.31,61.71-51.31c45.77,0,58.94,23.57,58.94,66.56v14.56h-40.91
		c-110.94,0-188.6,31.9-188.6,116.49C1121.46,514.32,1176.93,546.21,1242.8,546.21L1242.8,546.21z M1272.62,476.18
		c-36.75,0-52.7-17.33-52.7-43.68c0-38.83,33.98-51.31,92.22-51.31h38.83v30.51C1350.97,451.9,1316.99,476.18,1272.62,476.18
		L1272.62,476.18z M1524.94,538.59h99.84V42.64h-99.84V538.59L1524.94,538.59z M1709.58,538.59h111.64V347.21h48.53l118.57,191.37
		h119.27l-131.05-210.79c58.24-17.33,101.92-56.86,101.92-131.74v-2.77c0-102.62-74.19-150.46-191.37-150.46h-177.51L1709.58,538.59
		L1709.58,538.59z M1821.22,270.93V128.8h63.1c54.08,0,84.59,17.33,84.59,67.95v2.77c0,47.84-28.43,71.42-84.59,71.42
		L1821.22,270.93L1821.22,270.93z M2151.27,538.59h99.84V198.72h-99.84V538.59L2151.27,538.59z M2463.42,546.21
		c95.69,0,152.54-40.91,152.54-119.26c0-77.66-49.92-100.54-140.75-113.71c-52.7-7.63-70.03-16.64-70.03-39.52
		c0-22.19,18.72-37.44,51.31-37.44c34.67,0,51.31,13.87,56.85,43.68h92.22c-9.01-83.21-69.33-112.33-149.77-112.33
		c-74.19,0-143.53,37.44-143.53,113.02c0,70.73,37.45,98.46,133.83,113.02c52,7.63,73.49,18.03,73.49,42.99
		s-18.02,39.52-56.85,39.52c-43.69,0-59.63-18.72-63.79-51.31h-93.61C2308.8,503.21,2365.65,546.21,2463.42,546.21L2463.42,546.21z
		 M2671.37,538.59h100.54V367.32l119.95,171.27h113.72l-142.15-197.61l131.74-165.03h-106.78l-116.48,153.24V42.64h-100.54V538.59
		L2671.37,538.59z"/>
	<path class="st0" d="M55.94,42.64h99.85v333.9H55.94V42.64L55.94,42.64z M105.17,422.95c32.59,0,57.55,23.58,57.55,54.78
		s-24.96,54.78-57.55,54.78c-31.9,0-56.86-23.58-56.86-54.78C48.31,446.52,73.27,422.95,105.17,422.95L105.17,422.95z"/>
	<path class="st1" d="M2198.18,164.01c34.42,0,62.36-27.94,62.36-62.36c0-34.48-27.94-62.36-62.36-62.36
		c-34.43,0-62.36,27.88-62.36,62.36C2135.82,136.07,2163.75,164.01,2198.18,164.01L2198.18,164.01z"/>
	<path class="st1" d="M105.41,544.89c34.42,0,62.36-27.94,62.36-62.36c0-34.48-27.94-62.36-62.36-62.36s-62.36,27.88-62.36,62.36
		C43.05,516.95,70.99,544.89,105.41,544.89L105.41,544.89z"/>
	<path class="st0" d="M3147.67,595.28h23.67l81.46-198.7h-23.96l-40.87,105.69l-45.09-105.69h-25.09l57.78,132.19L3147.67,595.28
		L3147.67,595.28z M3330.02,527.07c-29.87,0-48.19-21.98-48.19-55.52v-2.25c0-33.82,18.6-55.81,48.19-55.81
		c29.31,0,48.2,21.98,48.2,56.09v1.97C3378.22,504.81,3359.62,527.07,3330.02,527.07L3330.02,527.07z M3329.74,546.52
		c42,0,72.72-30.72,72.72-75.25V469c0-44.25-30.72-74.97-72.44-74.97c-41.71,0-72.43,31-72.43,75.25v2.25
		C3257.59,514.67,3287.75,546.52,3329.74,546.52L3329.74,546.52z M3479.88,546.52c23.67,0,40.02-12.12,46.78-25.93v23.39h23.4
		v-147.4h-23.4v89.35c0,26.49-19.73,40.3-40.58,40.3c-23.11,0-34.11-11.56-34.11-37.49v-92.16h-23.39v93.29
		C3428.58,530.45,3450.57,546.52,3479.88,546.52L3479.88,546.52z M3586.78,543.98h23.39v-80.89c0-36.36,18.89-45.66,48.48-47.07
		v-21.98c-26.49,0.85-39.17,12.4-48.48,29.03v-26.49h-23.39V543.98L3586.78,543.98z M3795.35,546.52
		c35.79,0,54.11-18.04,54.11-44.81c0-31.28-21.42-38.05-51.86-43.69c-27.06-4.79-34.39-10.15-34.39-23.39
		c0-12.68,11-21.14,27.91-21.14c18.6,0,27.62,7.05,31,23.11h22.55c-3.95-31.85-26.78-42.56-53.27-42.56
		c-23.11,0-49.89,14.09-49.89,41.43c0,25.65,12.97,36.36,51.3,43.4c22.83,4.23,34.38,9.3,34.38,24.8c0,15.78-9.86,23.39-32.13,23.39
		c-23.67,0-32.97-10.99-34.66-28.47h-22.83C3738.98,528.76,3760.11,546.52,3795.35,546.52L3795.35,546.52z M3921.36,545.96
		c9.58,0,15.22-1.41,20.01-3.1v-19.73c-5.07,1.97-10.71,3.1-18.04,3.1c-11.84,0-18.32-7.05-18.32-21.42v-88.5h34.39v-19.73h-34.39
		v-33.54h-23.39v33.54h-21.14v19.73h21.14v90.75C3881.62,530.17,3894.58,545.96,3921.36,545.96L3921.36,545.96z M4006.64,546.52
		c21.71,0,34.95-7.33,45.95-21.14v18.6h23.39v-97.24c0-41.15-25.65-52.71-53.83-52.71c-28.47,0-55.25,12.4-58.35,45.94h23.4
		c2.25-18.04,13.53-26.49,33.82-26.49c22.55,0,31.57,9.86,31.57,33.26v10.71h-21.14c-37.77,0-73.85,11.56-73.85,45.66
		C3957.6,533.27,3979.31,546.52,4006.64,546.52L4006.64,546.52z M4008.9,527.92c-20.58,0-27.9-9.58-27.9-24.8
		c0-21.7,21.7-29.03,51.29-29.03h20.3v18.32C4052.59,515.23,4033.7,527.92,4008.9,527.92L4008.9,527.92z M4154.89,545.96
		c9.59,0,15.22-1.41,20.02-3.1v-19.73c-5.08,1.97-10.71,3.1-18.04,3.1c-11.84,0-18.32-7.05-18.32-21.42v-88.5h34.38v-19.73h-34.38
		v-33.54h-23.4v33.54h-21.13v19.73h21.13v90.75C4115.15,530.17,4128.12,545.96,4154.89,545.96L4154.89,545.96z M4198.1,543.98h23.39
		v-147.4h-23.39V543.98L4198.1,543.98z M4209.37,365.85c8.46,0,15.51-7.05,15.51-15.5c0-8.46-7.05-15.5-15.51-15.5
		c-8.45,0-15.5,7.05-15.5,15.5C4193.87,358.81,4200.92,365.85,4209.37,365.85L4209.37,365.85z M4306.16,546.52
		c35.79,0,54.11-18.04,54.11-44.81c0-31.28-21.42-38.05-51.86-43.69c-27.05-4.79-34.38-10.15-34.38-23.39
		c0-12.68,10.99-21.14,27.9-21.14c18.6,0,27.62,7.05,31,23.11h22.55c-3.94-31.85-26.77-42.56-53.27-42.56
		c-23.11,0-49.89,14.09-49.89,41.43c0,25.65,12.97,36.36,51.3,43.4c22.83,4.23,34.39,9.3,34.39,24.8c0,15.78-9.87,23.39-32.13,23.39
		c-23.68,0-32.98-10.99-34.67-28.47h-22.83C4249.79,528.76,4270.93,546.52,4306.16,546.52L4306.16,546.52z M4432.17,545.96
		c9.58,0,15.22-1.41,20.01-3.1v-19.73c-5.07,1.97-10.71,3.1-18.04,3.1c-11.83,0-18.32-7.05-18.32-21.42v-88.5h34.39v-19.73h-34.39
		v-33.54h-23.39v33.54h-21.14v19.73h21.14v90.75C4392.43,530.17,4405.4,545.96,4432.17,545.96L4432.17,545.96z M4475.38,543.98
		h23.39v-147.4h-23.39V543.98L4475.38,543.98z M4486.65,365.85c8.46,0,15.5-7.05,15.5-15.5c0-8.46-7.04-15.5-15.5-15.5
		c-8.45,0-15.5,7.05-15.5,15.5C4471.15,358.81,4478.2,365.85,4486.65,365.85L4486.65,365.85z M4597.67,546.52
		c35.51,0,61.16-23.67,64.26-55.52h-21.7c-2.54,23.96-21.42,36.08-42.28,36.08c-28.47,0-48.2-19.16-48.2-55.24v-2.26
		c0-34.67,20.58-56.09,47.35-56.09c20.3,0,37.21,8.74,40.87,32.13h23.11c-4.51-37.48-33.25-51.58-63.98-51.58
		c-39.45,0-71.59,30.44-71.59,75.54v2.26C4525.51,517.49,4556.52,546.52,4597.67,546.52L4597.67,546.52z M4737.18,546.52
		c35.79,0,54.11-18.04,54.11-44.81c0-31.28-21.42-38.05-51.86-43.69c-27.05-4.79-34.38-10.15-34.38-23.39
		c0-12.68,10.99-21.14,27.9-21.14c18.6,0,27.62,7.05,31.01,23.11h22.54c-3.94-31.85-26.77-42.56-53.27-42.56
		c-23.11,0-49.88,14.09-49.88,41.43c0,25.65,12.96,36.36,51.29,43.4c22.83,4.23,34.39,9.3,34.39,24.8
		c0,15.78-9.87,23.39-32.13,23.39c-23.68,0-32.98-10.99-34.67-28.47h-22.83C4680.81,528.76,4701.95,546.52,4737.18,546.52
		L4737.18,546.52z"/>
	<path class="st0" d="M3134.42,261.36h23.4v-90.19c0-26.49,19.72-39.46,38.89-39.46c20.29,0,31.29,10.71,31.29,36.64v93.01h23.39
		v-90.19c0-26.49,19.73-39.46,38.89-39.46c20.3,0,31.29,10.71,31.29,36.64v93.01h23.39v-91.32c0-42.84-23.11-58.62-49.6-58.62
		c-18.32,0-40.31,8.46-50.45,27.62c-7.61-19.73-24.24-27.62-43.13-27.62c-21.13,0-37.2,11.27-43.96,25.08v-22.55h-23.4
		L3134.42,261.36L3134.42,261.36z M3419.93,263.89c21.7,0,34.95-7.33,45.94-21.14v18.6h23.4v-97.23c0-41.15-25.65-52.7-53.84-52.7
		c-28.46,0-55.24,12.4-58.34,45.94h23.39c2.26-18.04,13.53-26.49,33.82-26.49c22.55,0,31.57,9.87,31.57,33.26v10.71h-21.14
		c-37.76,0-73.84,11.56-73.84,45.66C3370.89,250.65,3392.59,263.89,3419.93,263.89L3419.93,263.89z M3422.19,245.29
		c-20.58,0-27.91-9.58-27.91-24.8c0-21.7,21.7-29.03,51.3-29.03h20.29v18.32C3465.87,232.61,3446.99,245.29,3422.19,245.29
		L3422.19,245.29z M3525.11,261.36h23.4v-76.38l65.39,76.38h28.46l-68.49-78.92l63.14-68.49h-27.34l-61.16,67.93V43.49h-23.4
		L3525.11,261.36L3525.11,261.36z M3713.25,263.89c33.25,0,57.77-15.5,62.85-45.1h-23.4c-3.1,17.19-16.34,25.65-39.17,25.65
		c-30.16,0-46.23-18.6-47.35-52.14h111.04v-7.61c0-52.7-32.13-73.28-66.23-73.28c-40.59,0-69.05,31-69.05,75.53v2.26
		C3641.94,234.58,3671.53,263.89,3713.25,263.89L3713.25,263.89z M3667.02,173.42c3.95-26.21,20.01-42.56,43.97-42.56
		c24.24,0,40.02,12.12,42.28,42.56H3667.02L3667.02,173.42z M3915.61,263.89c35.79,0,54.11-18.04,54.11-44.81
		c0-31.29-21.42-38.05-51.86-43.69c-27.05-4.79-34.38-10.15-34.38-23.39c0-12.68,10.99-21.14,27.9-21.14
		c18.6,0,27.62,7.05,31.01,23.11h22.54c-3.94-31.85-26.77-42.56-53.27-42.56c-23.11,0-49.88,14.09-49.88,41.43
		c0,25.65,12.96,36.36,51.29,43.41c22.83,4.23,34.39,9.3,34.39,24.8c0,15.78-9.87,23.39-32.13,23.39
		c-23.68,0-32.98-10.99-34.67-28.47h-22.83C3859.24,246.14,3880.38,263.89,3915.61,263.89L3915.61,263.89z M4058.22,263.89
		c33.26,0,57.78-15.5,62.86-45.1h-23.4c-3.1,17.19-16.34,25.65-39.17,25.65c-30.16,0-46.23-18.6-47.35-52.14h111.04v-7.61
		c0-52.7-32.13-73.28-66.23-73.28c-40.59,0-69.05,31-69.05,75.53v2.26C3986.92,234.58,4016.51,263.89,4058.22,263.89L4058.22,263.89
		z M4012,173.42c3.95-26.21,20.01-42.56,43.97-42.56c24.24,0,40.02,12.12,42.28,42.56H4012L4012,173.42z M4150.24,261.36h23.4
		v-89.35c0-26.49,19.45-40.3,41.15-40.3c23.67,0,34.67,11.56,34.67,37.49v92.16h23.39v-90.47c0-42.84-21.42-59.47-51.86-59.47
		c-24.24,0-40.59,12.12-47.35,25.93v-23.39h-23.4V261.36L4150.24,261.36z M4356.25,263.89c35.79,0,54.11-18.04,54.11-44.81
		c0-31.29-21.42-38.05-51.86-43.69c-27.06-4.79-34.39-10.15-34.39-23.39c0-12.68,11-21.14,27.91-21.14c18.6,0,27.62,7.05,31,23.11
		h22.55c-3.95-31.85-26.78-42.56-53.27-42.56c-23.11,0-49.89,14.09-49.89,41.43c0,25.65,12.97,36.36,51.3,43.41
		c22.83,4.23,34.38,9.3,34.38,24.8c0,15.78-9.86,23.39-32.13,23.39c-23.67,0-32.97-10.99-34.66-28.47h-22.83
		C4299.88,246.14,4321.01,263.89,4356.25,263.89L4356.25,263.89z M4498.86,263.89c33.26,0,57.78-15.5,62.85-45.1h-23.39
		c-3.1,17.19-16.35,25.65-39.18,25.65c-30.16,0-46.22-18.6-47.35-52.14h111.05v-7.61c0-52.7-32.13-73.28-66.24-73.28
		c-40.58,0-69.05,31-69.05,75.53v2.26C4427.55,234.58,4457.15,263.89,4498.86,263.89L4498.86,263.89z M4452.64,173.42
		c3.94-26.21,20.01-42.56,43.96-42.56c24.24,0,40.03,12.12,42.28,42.56H4452.64L4452.64,173.42z M4717.01,244.45
		c-29.88,0-48.2-21.98-48.2-55.52v-2.26c0-33.82,18.6-55.81,48.2-55.81c29.31,0,48.19,21.98,48.19,56.09v1.97
		C4765.2,222.18,4746.6,244.45,4717.01,244.45L4717.01,244.45z M4716.73,263.89c41.99,0,72.71-30.72,72.71-75.25v-2.25
		c0-44.25-30.72-74.97-72.43-74.97c-41.72,0-72.44,31-72.44,75.25v2.26C4644.57,232.05,4674.73,263.89,4716.73,263.89
		L4716.73,263.89z M4820.22,261.36h23.39V133.68h36.08v-19.73h-36.08V87.46c0-14.94,6.2-25.37,21.42-25.37
		c6.48,0,12.4,1.41,16.63,3.1V45.46c-5.92-1.97-9.87-2.82-17.48-2.82c-29.31,0-43.96,17.47-43.96,47.35v23.96h-21.14v19.73h21.14
		V261.36L4820.22,261.36z"/>
</g>
</svg>
