<?xml version="1.0" standalone="no"?>
<!DOCTYPE svg PUBLIC "-//W3C//DTD SVG 1.1//EN" "http://www.w3.org/Graphics/SVG/1.1/DTD/svg11.dtd" >
<svg xmlns="http://www.w3.org/2000/svg">
<metadata>Generated by IcoMoon</metadata>
<defs>
<font id="icomoon" horiz-adv-x="1024">
<font-face units-per-em="1024" ascent="960" descent="-64" />
<missing-glyph horiz-adv-x="1024" />
<glyph unicode="&#x20;" horiz-adv-x="512" d="" />
<glyph unicode="&#xe900;" glyph-name="RR-docs" horiz-adv-x="895" d="M846.147 730.947l-153.6-431.158-72.758-196.716-37.726-107.789c0-2.695-2.695-2.695-5.389-2.695 0 0 0 0-2.695 0l-482.358 164.379-43.116 13.474c0 0 0 0 0 0s0 0 0 0 0 0 0 0 0 2.695 0 2.695l32.337 88.926 32.337 91.621 177.853 495.832 16.168 45.811 5.389 13.474c0 0 0 0 0 0s2.695 2.695 2.695 2.695c0 0 0 0 2.695 0l29.642-5.389 94.316-32.337 226.358-75.453 172.463-59.284c0 0 0 0 0 0s0 0 2.695-2.695 2.695-2.695 2.695-5.389zM716.8 119.242c0-2.695 0-5.389-2.695-5.389l-40.421-5.389 26.947 75.453 5.389 18.863 10.779-83.537zM156.295 41.095c-2.695 0-5.389 0-5.389 2.695l-5.389 48.505 56.589-21.558 53.895-18.863-99.705-10.779zM48.505 817.179c0 2.695 2.695 5.389 2.695 5.389l185.937 24.253-43.116-121.263-67.368-10.779 5.389-43.116 45.811 5.389-80.842-223.663-48.505 363.789zM606.316 895.326c2.695 0 5.389-2.695 5.389-2.695l5.389-29.642-78.147 24.253 67.368 8.084zM889.263 741.726c0 2.695 0 2.695 0 5.389 0 0 0 2.695-2.695 5.389s0 2.695-2.695 5.389c0 0 0 2.695 0 2.695 0 2.695-2.695 2.695-2.695 2.695-2.695 2.695-5.389 5.389-8.084 8.084 0 0-2.695 2.695-5.389 2.695 0 0 0 0-2.695 0 0 0-2.695 2.695-5.389 2.695s-2.695 2.695-5.389 2.695l-194.021 64.674-8.084 53.895c-2.695 26.947-29.642 45.811-56.589 40.421l-153.6-21.558-115.874 40.421c0 2.695-5.389 2.695-10.779 2.695h-5.389c0 0-2.695 0-2.695 0-10.779 0-21.558-5.389-26.947-13.474-5.389-5.389-10.779-10.779-13.474-18.863l-13.474-35.032-207.495-29.642c-26.947-2.695-45.811-29.642-43.116-53.895l61.979-447.326-61.979-169.768c0-2.695-2.695-5.389-2.695-8.084s0-5.389 0-10.779c0-2.695 0-5.389 0-8.084s0-2.695 0-5.389c0 0 0-2.695 0-2.695 0-2.695 2.695-5.389 2.695-8.084 0 0 0 0 0-2.695 2.695-2.695 2.695-5.389 5.389-8.084 0 0 2.695-2.695 2.695-2.695 2.695-2.695 2.695-2.695 5.389-5.389 0 0 2.695 0 2.695 0 2.695 0 2.695-2.695 5.389-2.695s2.695 0 5.389-2.695l64.674-21.558 13.474-64.674c2.695-26.947 29.642-45.811 56.589-40.421l188.632 24.253 210.189-72.758c2.695 0 5.389 0 8.084-2.695 2.695 0 5.389 0 8.084 0s8.084 0 10.779 0c2.695 0 5.389 0 5.389 2.695 2.695 0 5.389 2.695 8.084 2.695s5.389 2.695 8.084 5.389 13.474 13.474 16.168 21.558l29.642 80.842 64.674 8.084c26.947 2.695 45.811 26.947 43.116 53.895l-24.253 169.768 2.695 10.779 142.821 414.989c2.695 2.695 2.695 5.389 2.695 8.084s0 2.695 0 5.389c2.695 2.695 0 8.084 0 10.779 0 0 0 0 0 0zM317.979 747.116l406.905-137.432 13.474 40.421-406.905 140.126zM272.168 623.158l406.905-140.126 16.168 43.116-406.905 137.432zM229.053 499.2l406.905-137.432 13.474 40.421-406.905 140.126zM183.242 372.547l406.905-140.126 16.168 43.116-409.6 137.432zM145.516 267.453l406.905-137.432 16.168 40.421-409.6 137.432z" />
<glyph unicode="&#xe901;" glyph-name="RR-people" horiz-adv-x="1171" d="M703.147 693.76h-232.107c-40.96 0-68.267-30.72-68.267-71.68v-317.44c0-34.133 20.48-61.44 51.2-68.267 6.827 0 10.24-3.413 17.067-3.413v-225.28c0-44.373 27.307-71.68 71.68-71.68h95.573c17.067 0 34.133 3.413 47.787 17.067 17.067 13.653 20.48 30.72 20.48 51.2v225.28c47.787 10.24 68.267 30.72 68.267 71.68 0 105.813 0 211.627 0 320.853-3.413 40.96-30.72 71.68-71.68 71.68zM1170.773 605.013c0 37.547-23.893 61.44-61.44 64.853-64.853 0-133.12 0-197.973 0-37.547 0-61.44-23.893-61.44-58.027v-276.48c0-27.307 17.067-51.2 44.373-58.027 13.653-3.413 13.653-6.827 13.653-17.067v-174.080c0-37.547 23.893-61.44 61.44-61.44 27.307 0 58.027 0 85.333 0 34.133 0 58.027 27.307 58.027 61.44v194.56c40.96 6.827 61.44 27.307 61.44 68.267-3.413 78.507-3.413 167.253-3.413 256zM259.413 666.453c-68.267 0-133.12 0-201.387 0-34.133 0-58.027-23.893-58.027-61.44 0-92.16 0-184.32 0-276.48 0-13.653 6.827-30.72 13.653-37.547 10.24-10.24 27.307-17.067 40.96-23.893 0 0 3.413 3.413 3.413 3.413v-191.147c0-37.547 23.893-61.44 61.44-61.44h75.093c40.96 0 64.853 23.893 64.853 64.853v187.733c40.96 6.827 58.027 27.307 58.027 68.267v259.413c3.413 40.96-20.48 68.267-58.027 68.267zM587.093 734.72c61.44 0 112.64 51.2 112.64 112.64s-51.2 112.64-112.64 112.64c-61.44 0-112.64-51.2-112.64-112.64s47.787-112.64 112.64-112.64zM1003.52 707.413c58.027-3.413 102.4 37.547 102.4 95.573 0 51.2-40.96 95.573-88.747 98.987-58.027 0-102.4-37.547-102.4-92.16s40.96-102.4 88.747-102.4zM157.013 707.413c54.613 0 98.987 40.96 98.987 95.573 0 51.2-40.96 95.573-95.573 95.573-51.2 0-95.573-40.96-95.573-95.573 0-51.2 40.96-95.573 92.16-95.573z" />
<glyph unicode="&#xe902;" glyph-name="RR-percent" d="M512-64c-281.888 0-512 230.112-512 512s230.112 512 512 512 512-230.112 512-512-230.112-512-512-512zM512 896.719c-247.371 0-445.843-201.348-445.843-445.843 0-247.371 201.348-445.843 445.843-445.843 247.371 0 445.843 201.348 445.843 445.843s-201.348 445.843-445.843 445.843zM848.539 309.933c0 40.27-14.382 74.787-43.146 100.674-28.764 28.764-63.281 43.146-100.674 43.146-40.27 0-74.787-14.382-100.674-43.146-28.764-28.764-43.146-63.281-43.146-100.674 0-40.27 14.382-74.787 43.146-100.674 28.764-28.764 63.281-43.146 100.674-43.146 40.27 0 74.787 14.382 100.674 43.146 28.764 25.888 43.146 60.404 43.146 100.674zM768 309.933c0-17.258-5.753-31.64-17.258-43.146s-25.888-17.258-43.146-17.258-31.64 5.753-43.146 17.258c-11.506 11.506-17.258 25.888-17.258 43.146s5.753 31.64 17.258 43.146c11.506 11.506 25.888 17.258 43.146 17.258s31.64-5.753 43.146-17.258c8.629-11.506 17.258-25.888 17.258-43.146zM474.607 591.82c0 40.27-14.382 74.787-43.146 100.674-28.764 28.764-60.404 43.146-100.674 43.146s-74.787-14.382-103.551-43.146c-28.764-28.764-43.146-60.404-43.146-100.674s14.382-74.787 43.146-100.674c28.764-28.764 60.404-43.146 100.674-43.146s74.787 14.382 100.674 43.146c31.64 25.888 46.022 60.404 46.022 100.674zM330.787 528.539c-17.258 0-31.64 5.753-43.146 17.258s-17.258 25.888-17.258 43.146 5.753 31.64 17.258 43.146 25.888 17.258 43.146 17.258 31.64-5.753 43.146-17.258 17.258-25.888 17.258-43.146-5.753-31.64-17.258-43.146-25.888-17.258-43.146-17.258zM273.258 171.865c-8.629 0-20.135 2.876-28.764 11.506-14.382 14.382-14.382 40.27 0 54.652l488.989 483.236c14.382 14.382 40.27 14.382 54.652 0s14.382-40.27 0-54.652l-486.112-483.236c-8.629-5.753-17.258-11.506-28.764-11.506z" />
<glyph unicode="&#xe903;" glyph-name="RR-first-aid" horiz-adv-x="1063" d="M709.671 279.494h-100.456v-100.456h-155.544v100.456h-100.456v155.544h100.456v100.456h155.544v-100.456h100.456zM657.823 960h-256c-84.253 0-152.304-68.051-152.304-152.304h90.734c0 35.646 29.165 61.57 61.57 61.57h256c35.646 0 61.57-29.165 61.57-61.57h90.734c0 84.253-68.051 152.304-152.304 152.304zM531.443 62.38c-165.266 0-294.886 132.861-294.886 294.886s132.861 294.886 294.886 294.886 294.886-132.861 294.886-294.886-132.861-294.886-294.886-294.886zM1017.519 781.772h-972.152c-25.924 0-45.367-22.684-45.367-48.608v-755.038c0-25.924 19.443-45.367 45.367-45.367h972.152c25.924 0 45.367 19.443 45.367 45.367v755.038c0 25.924-22.684 48.608-45.367 48.608z" />
<glyph unicode="&#xe904;" glyph-name="RR-import" horiz-adv-x="1012" d="M1011.846-64h-1011.846v799.145h1011.846v-799.145zM103.312 39.312h805.223v592.522h-805.223v-592.522zM598.599 212.51c-18.231 0-33.424 9.116-42.54 24.309l-398.053 644.178c-12.154 24.309-6.077 57.733 18.231 72.926 24.309 12.154 54.694 6.077 69.887-18.231l395.015-644.178c15.193-24.309 6.077-54.694-18.231-69.887-6.077-6.077-15.193-9.116-24.309-9.116zM598.599 212.51c-3.039 0-6.077 0-9.116 0l-240.047 42.54c-27.347 6.077-45.579 30.386-42.54 60.772 6.077 27.347 30.386 45.579 60.772 42.54l191.43-33.424 45.579 191.43c6.077 27.347 33.424 45.579 60.772 36.463 27.347-6.077 45.579-33.424 36.463-60.772l-57.733-237.009c-3.039-27.347-21.27-42.54-45.579-42.54z" />
<glyph unicode="&#xe905;" glyph-name="RR-pointer" horiz-adv-x="705" d="M254.809 567.070v-478.66l130.977 150.028c4.763 4.763 11.907 9.526 19.051 9.526h209.563l-359.591 319.107zM228.614-4.465c-2.381 0-4.763 0-9.526 2.381-9.526 4.763-16.67 11.907-16.67 23.814v600.112c0 9.526 4.763 19.051 14.288 23.814s19.051 2.381 26.195-4.763l450.084-400.074c7.144-7.144 9.526-19.051 7.144-28.577-4.763-9.526-11.907-16.67-23.814-16.67h-259.572l-166.698-190.512c-7.144-4.763-14.288-9.526-21.433-9.526zM504.856-35.423c-9.526 0-19.051 4.763-23.814 16.67l-100.019 250.047c-4.763 11.907 0 28.577 14.288 33.34 11.907 4.763 26.195 0 33.34-14.288l100.019-250.047c4.763-11.907 0-28.577-14.288-33.34-2.381-2.381-7.144-2.381-9.526-2.381zM238.14 602.791v-535.814l169.079 140.502 254.809 28.577z" />
<glyph unicode="&#xe906;" glyph-name="RR-stamp" horiz-adv-x="1301" d="M218.648 391.516h127.544c14.577 0 43.73 3.644 54.662 0 14.577-3.644 32.797-32.797 43.73-43.73 7.288-7.288 32.797-29.153 32.797-40.085-3.644 0-7.288 0-10.932 0-7.288 3.644-40.085 0-47.374 0h-109.324c-14.577 0-36.441 3.644-47.374-3.644-10.932-3.644-10.932-18.221-18.221-29.153s-14.577-25.509-18.221-36.441c0-3.644 0-3.644 0-7.288-18.221-36.441-36.441-72.883-54.662-105.68-7.288-14.577-10.932-25.509-18.221-40.085-7.288-10.932-14.577-25.509-18.221-36.441 0 0 0-3.644 0-7.288-3.644-7.288-10.932-14.577-10.932-21.865 0 0 3.644 0 3.644 0 3.644-3.644 14.577 0 21.865 0h943.829c25.509 0 61.95-3.644 83.815 0 0 0 0 3.644 0 3.644-7.288 7.288-7.288 14.577-10.932 25.509-7.288 10.932-14.577 25.509-18.221 36.441 0 3.644 0 3.644 0 7.288-3.644 10.932-10.932 25.509-18.221 36.441-3.644 10.932-7.288 18.221-10.932 29.153-10.932 25.509-25.509 51.018-40.085 76.527 0 0 0 3.644 0 7.288-7.288 10.932-14.577 25.509-18.221 36.441s-7.288 21.865-18.221 29.153c-14.577 7.288-43.73 3.644-61.95 3.644-51.018 0-102.036 0-149.409 0 0 0 0 3.644-3.644 3.644 3.644 7.288 10.932 7.288 14.577 14.577 10.932 14.577 21.865 25.509 32.797 40.085 3.644 3.644 7.288 7.288 10.932 7.288 3.644 7.288 10.932 18.221 18.221 18.221 7.288 3.644 21.865 0 32.797 0h127.544c7.288 0 18.221 0 25.509-3.644 10.932-3.644 10.932-14.577 18.221-25.509 14.577-21.865 25.509-47.374 36.441-72.883 3.644-7.288 10.932-18.221 14.577-25.509 10.932-29.153 25.509-54.662 40.085-83.815 7.288-10.932 10.932-25.509 14.577-36.441 7.288-10.932 14.577-25.509 18.221-36.441 10.932-21.865 18.221-47.374 32.797-69.238 7.288-18.221 18.221-32.797 25.509-51.018 7.288-14.577 18.221-21.865 10.932-47.374-3.644-3.644-7.288-7.288-10.932-7.288h-1217.139c-21.865 0-65.594-7.288-72.883 10.932-3.644 7.288 0 25.509 3.644 29.153 14.577 25.509 25.509 54.662 40.085 80.171 7.288 18.221 21.865 40.085 29.153 58.306 7.288 14.577 10.932 25.509 18.221 40.085 18.221 36.441 36.441 72.883 54.662 109.324 7.288 14.577 10.932 25.509 18.221 40.085 7.288 10.932 14.577 25.509 18.221 36.441 0 0 0 3.644 0 7.288 3.644 7.288 10.932 18.221 14.577 25.509 3.644 3.644 3.644 10.932 7.288 14.577s7.288 7.288 10.932 10.932c0-7.288 0-7.288 3.644-7.288zM688.74 814.235c54.662-14.577 91.103-51.018 109.324-105.68 7.288-21.865 10.932-54.662 3.644-80.171 0-7.288-3.644-21.865-7.288-32.797-21.865-43.73-58.306-72.883-112.968-87.459-21.865-3.644-58.306 0-76.527 3.644-43.73 14.577-83.815 54.662-98.391 94.747-10.932 32.797-10.932 76.527 0 109.324 18.221 40.085 47.374 72.883 91.103 91.103 3.644 3.644 10.932 7.288 18.221 7.288s14.577 0 18.221 3.644c21.865 0 40.085 0 54.662-3.644zM641.367 960c51.018 0 94.747-10.932 127.544-25.509 76.527-32.797 127.544-87.459 156.698-167.63 21.865-54.662 29.153-138.477 7.288-196.783 0-3.644 0-7.288 0-14.577-21.865-58.306-58.306-94.747-94.747-142.121-3.644-3.644-7.288-7.288-10.932-7.288-10.932-18.221-29.153-32.797-40.085-47.374s-25.509-25.509-36.441-40.085c-25.509-36.441-47.374-69.238-69.238-109.324-7.288-14.577-10.932-40.085-32.797-43.73s-29.153 40.085-36.441 51.018c-14.577 29.153-32.797 54.662-51.018 83.815-14.577 18.221-29.153 36.441-43.73 54.662-10.932 14.577-25.509 25.509-36.441 36.441-32.797 43.73-72.883 80.171-98.391 134.833-3.644 3.644-7.288 10.932-10.932 18.221-7.288 18.221-10.932 36.441-14.577 54.662 0 7.288 0 18.221 0 29.153v21.865c-3.644 18.221 0 43.73 3.644 61.95 3.644 14.577 3.644 29.153 10.932 43.73 10.932 32.797 29.153 61.95 47.374 87.459 10.932 14.577 18.221 21.865 29.153 32.797 3.644 3.644 7.288 7.288 7.288 10.932 32.797 21.865 61.95 43.73 102.036 58.306 18.221 7.288 40.085 7.288 61.95 14.577 7.288 0 18.221-3.644 21.865 0z" />
<glyph unicode="&#xe907;" glyph-name="RR-hash" horiz-adv-x="798" d="M318.766 562.248h211.57l-47.956-231.317h-211.57l47.956 231.317zM612.143 960l-59.24-279.273h-211.57l59.24 279.273h-115.658l-59.24-279.273h-225.675v-118.479h200.287l-47.956-231.317h-152.331v-118.479h126.942l-56.419-276.452h118.479l56.419 276.452h211.57l-56.419-276.452h115.658l59.24 276.452h222.854v118.479h-200.287l47.956 231.317h152.331v118.479h-129.763l62.061 279.273h-118.479z" />
<glyph unicode="&#xe908;" glyph-name="RR-blueman" horiz-adv-x="348" d="M169.506 948.39c46.44 0 74.304-23.22 88.236-53.406 6.966-18.576 9.288-46.44 2.322-65.016-9.288-23.22-27.864-41.796-51.084-51.084-9.288-4.644-18.576-4.644-25.542-6.966h-9.288c-9.288-2.322-23.22 2.322-30.186 4.644-27.864 11.61-46.44 30.186-55.728 58.050-2.322 9.288-4.644 25.542-2.322 39.474 2.322 4.644 2.322 11.61 4.644 16.254 9.288 23.22 27.864 41.796 51.084 51.084 4.644 2.322 11.61 4.644 18.576 4.644 2.322 2.322 6.966 2.322 9.288 2.322zM273.995 323.773v-271.673c0-11.61 0-27.864-2.322-37.152-4.644-18.576-11.61-34.83-25.542-44.118-11.61-9.288-25.542-13.932-41.796-18.576-4.644-2.322-9.288 0-13.932-2.322-6.966-2.322-27.864-2.322-34.83 0h-6.966c-4.644 0-11.61 2.322-16.254 2.322-23.22 6.966-39.474 23.22-48.762 46.44-11.61 25.542-6.966 65.016-6.966 102.168v222.912c-25.542 2.322-46.44 25.542-55.728 46.44-2.322 6.966-4.644 16.254-6.966 25.542 0 6.966 0 13.932 0 20.898v215.946c0 11.61-2.322 23.22 0 34.83 2.322 9.288 2.322 16.254 6.966 23.22 11.61 27.864 34.83 39.474 67.338 46.44 11.61 2.322 34.83 0 48.762 0h99.846c9.288 0 18.576 0 27.864 0 4.644 0 11.61-2.322 16.254-2.322 23.22-6.966 39.474-20.898 48.762-41.796 9.288-23.22 9.288-48.762 9.288-81.27v-190.404c0-13.932 0-27.864-2.322-39.474-6.966-20.898-16.254-34.83-32.508-44.118-9.288-6.966-20.898-13.932-30.186-13.932z" />
<glyph unicode="&#xe909;" d="M514.994-64c281.45 0 514.994 227.556 514.994 514.994s-233.544 509.006-514.994 509.006-514.994-227.556-514.994-514.994c0-281.45 227.556-509.006 514.994-509.006z" />
<glyph unicode="&#xe90a;" d="M263.485 672.561c11.977 29.942 29.942 59.883 53.895 83.836s47.906 41.918 77.848 53.895 65.871 17.965 107.789 17.965c47.906 0 89.825-5.988 125.754-17.965s59.883-29.942 83.836-53.895 35.93-41.918 41.918-65.871c5.988-23.953 11.977-47.906 11.977-65.871 0-35.93-5.988-59.883-11.977-83.836s-17.965-41.918-29.942-53.895-29.942-29.942-41.918-41.918-29.942-23.953-47.906-29.942-29.942-23.953-35.93-35.93c-11.977-11.977-17.965-29.942-17.965-53.895v-41.918h-149.708v47.906c0 29.942 5.988 53.895 17.965 77.848 11.977 17.965 17.965 35.93 35.93 53.895 11.977 11.977 23.953 29.942 41.918 35.93s29.942 23.953 41.918 29.942c11.977 11.977 23.953 23.953 29.942 35.93 0 11.977 5.988 23.953 0 41.918 0 29.942-5.988 53.895-23.953 71.86s-35.93 23.953-65.871 23.953c-17.965 0-35.93-5.988-47.906-11.977s-23.953-11.977-35.93-29.942-11.977-23.953-17.965-41.918c-5.988-17.965-5.988-35.93-5.988-53.895h-155.696c0 41.918 5.988 77.848 17.965 107.789zM580.865 55.766h-161.684v161.684h167.673v-161.684z" />
<glyph unicode="&#xe90b;" d="M514.994-64c281.45 0 514.994 227.556 514.994 514.994s-233.544 509.006-514.994 509.006-514.994-227.556-514.994-514.994c0-281.45 227.556-509.006 514.994-509.006z" />
<glyph unicode="&#xe90c;" d="M197.614 163.556c0-5.988 0-17.965 11.977-17.965 0 0 5.988 0 5.988 0l143.719 35.93-131.743 131.743-29.942-149.708zM820.398 708.491l-59.883 59.883c-23.953 23.953-59.883 23.953-83.836 0v0l-53.895-53.895 131.743-131.743 65.871 65.871c17.965 11.977 17.965 41.918 0 59.883zM592.842 678.55l125.754-131.743-329.357-329.357-131.743 131.743 335.345 329.357z" />
<glyph unicode="&#xe90d;" glyph-name="RR-down" horiz-adv-x="1183" d="M0 960l591.448-1024 591.448 1024z" />
<glyph unicode="&#xe90e;" glyph-name="RR-chevron" horiz-adv-x="628" d="M118.807-64l-118.807 124.464 390.365 390.365-390.365 390.365 118.807 118.807 509.171-509.171z" />
<glyph unicode="&#xe90f;" glyph-name="RR-todo" d="M1020.343-60.343h-1020.343v1020.343h1024v-1020.343zM58.514-1.829h899.657v903.314h-899.657v-903.314z" />
<glyph unicode="&#xe910;" glyph-name="RR-download" horiz-adv-x="782" d="M41.143-64h704v128h-704v-128zM329.143 960v-635.429l-242.286 242.286-86.857-91.429 393.143-393.143 393.143 393.143-86.857 91.429-242.286-242.286v635.429h-128z" />
<glyph unicode="&#xe911;" glyph-name="RR-email" d="M638.976 91.648l-114.688 315.392 360.448 360.448-245.76-675.84zM831.488 824.832l-360.448-360.448-315.392 110.592 675.84 249.856zM1024 919.040c0 0 0 0 0 0 0 4.096 0 4.096 0 8.192 0 0 0 0 0 0 0 4.096 0 4.096 0 4.096s0 0 0 0 0 4.096-4.096 4.096c0 0 0 0 0 0 0 4.096-4.096 4.096-4.096 4.096s-4.096 4.096-4.096 4.096c0 0 0 0 0 0s-4.096 0-4.096 4.096c0 0 0 0 0 0s-4.096 0-8.192 4.096c0 0 0 0 0 0s-4.096 0-4.096 0c0 0 0 0 0 0s-4.096 0-4.096 0c0 0 0 0 0 0s-4.096 0-4.096 0l-942.080-344.064c-36.864 0-45.056-16.384-45.056-32.768s8.192-32.768 24.576-36.864l425.984-151.552 155.648-421.888c4.096-16.384 20.48-24.576 36.864-24.576v0c16.384 0 32.768 8.192 36.864 24.576l344.064 942.080c0 4.096 0 4.096 0 4.096s0 0 0 0c0 4.096 0 8.192 0 8.192z" />
<glyph unicode="&#xe912;" glyph-name="RR-blackman" horiz-adv-x="347" d="M170.667 947.81c48.762 0 73.143-24.381 85.333-54.857 6.095-18.286 12.19-48.762 0-67.048-6.095-24.381-24.381-36.571-48.762-48.762-6.095-6.095-12.19-6.095-24.381-6.095h-6.095c-12.19 0-24.381 0-30.476 6.095-30.476 12.19-48.762 30.476-54.857 60.952 0 12.19-6.095 24.381 0 36.571 0 6.095 0 12.19 6.095 18.286 12.19 24.381 24.381 42.667 48.762 54.857 6.095 0 12.19 6.095 18.286 6.095 0-6.095 0-6.095 6.095-6.095zM274.286 326.095v-268.19c0-12.19 0-24.381 0-36.571-6.095-18.286-12.19-36.571-24.381-42.667-12.19-12.19-24.381-12.19-42.667-18.286-6.095 0-6.095 0-12.19 0s-30.476 0-36.571 0h-12.19c-6.095 0-12.19 0-18.286 0-24.381 6.095-42.667 24.381-48.762 42.667-12.19 24.381-6.095 67.048-6.095 103.619v225.524c-24.381 0-48.762 24.381-54.857 48.762 0 6.095-6.095 18.286-6.095 24.381s0 12.19 0 18.286v207.238c0 12.19 0 24.381 0 30.476s0 18.286 6.095 24.381c12.19 30.476 36.571 42.667 67.048 48.762 12.19 0 36.571 0 48.762 0h97.524c12.19 0 18.286 0 30.476 0 6.095 0 12.19 0 18.286 0 24.381-6.095 42.667-24.381 48.762-42.667 12.19-24.381 12.19-48.762 12.19-79.238v-195.048c0-12.19 0-30.476 0-36.571-12.19-24.381-24.381-36.571-36.571-48.762-12.19 0-18.286-6.095-30.476-6.095z" />
<glyph unicode="&#xe914;" glyph-name="RR-chart" horiz-adv-x="1178" d="M12.8 947.2v-998.4h1145.6v76.8h-1068.8v921.6zM1177.6-70.4h-1177.6v1030.4h102.4v-921.6h1068.8v-108.8zM32-38.4h1113.6v44.8h-1075.2v921.6h-38.4v-966.4zM422.4 723.2h147.2v-588.8h-147.2v588.8zM640 870.4h147.2v-736h-147.2v736zM864 646.4h147.2v-518.4h-147.2c0 6.4 0 518.4 0 518.4zM198.4 499.2h147.2v-371.2h-147.2v371.2z" />
<glyph unicode="&#xe915;" glyph-name="RR-graph" horiz-adv-x="1161" d="M0 960v-1024h1161.366v99.902h-1061.463v137.366l312.195 312.195 218.537-174.829 480.78 418.341-62.439 81.171-418.341-368.39-218.537 187.317-312.195-318.439v649.366z" />
<glyph unicode="&#xe916;" glyph-name="RR-done" d="M0 960h1020.343v-1020.343h-1020.343v1020.343z" />
</font>
</defs>
</svg>
